<svg
  width="36"
  height="36"
  viewBox="0 0 36 36"
  fill="none"
  xmlns="http://www.w3.org/2000/svg">
  <path
    d="M31.416 19.4685C30.6825 26.232 24.957 31.5 18 31.5C13.953 31.5 10.332 29.709 7.8555 26.8875L9.723 24.438C11.6475 26.9055 14.637 28.5 18 28.5C23.289 28.5 27.666 24.564 28.3845 19.4685H24L30 11.5935L36 19.4685H31.416ZM7.62 16.5C8.3505 11.4195 12.72 7.5 18 7.5C21.3555 7.5 24.342 9.0885 26.265 11.547L28.131 9.099C25.656 6.285 22.0395 4.5 18 4.5C11.052 4.5 5.3355 9.7515 4.5885 16.5H0L6 24.375L12 16.5H7.62Z"
    fill="white" />
</svg>
