<svg width="19" height="18" viewBox="0 0 19 18" fill="none" xmlns="http://www.w3.org/2000/svg">
<g clip-path="url(#clip0_371_483)">
<path d="M16.208 9.73425C15.8413 13.116 12.9785 15.75 9.5 15.75C7.4765 15.75 5.666 14.8545 4.42775 13.4437L5.3615 12.219C6.32375 13.4527 7.8185 14.25 9.5 14.25C12.1445 14.25 14.333 12.282 14.6923 9.73425H12.5L15.5 5.79675L18.5 9.73425H16.208ZM4.31 8.25C4.67525 5.70975 6.86 3.75 9.5 3.75C11.1777 3.75 12.671 4.54425 13.6325 5.7735L14.5655 4.5495C13.328 3.1425 11.5198 2.25 9.5 2.25C6.026 2.25 3.16775 4.87575 2.79425 8.25H0.5L3.5 12.1875L6.5 8.25H4.31Z" fill="#F89464"/>
</g>
<defs>
<clipPath id="clip0_371_483">
<rect width="18" height="18" fill="white" transform="translate(0.5)"/>
</clipPath>
</defs>
</svg>
